<svg width="24" height="25" viewBox="0 0 24 25" fill="none" xmlns="http://www.w3.org/2000/svg">
<g clip-path="url(#clip0_962_88007)">
<path d="M24 12.5C24 5.87258 18.6274 0.5 12 0.5C5.37258 0.5 0 5.87258 0 12.5C0 18.4895 4.3882 23.454 10.125 24.3542V15.9688H7.07812V12.5H10.125V9.85625C10.125 6.84875 11.9166 5.1875 14.6576 5.1875C15.9701 5.1875 17.3438 5.42188 17.3438 5.42188V8.375H15.8306C14.34 8.375 13.875 9.30008 13.875 10.25V12.5H17.2031L16.6711 15.9688H13.875V24.3542C19.6118 23.454 24 18.4895 24 12.5Z" fill="#1E56A0"/>
</g>
<defs>
<clipPath id="clip0_962_88007">
<rect width="24" height="24" fill="white" transform="translate(0 0.5)"/>
</clipPath>
</defs>
</svg>
