<svg width="24" height="25" viewBox="0 0 24 25" fill="none" xmlns="http://www.w3.org/2000/svg">
<g clip-path="url(#clip0_962_88008)">
<path d="M12 2.66094C15.2063 2.66094 15.5859 2.675 16.8469 2.73125C18.0188 2.78281 18.6516 2.97969 19.0734 3.14375C19.6313 3.35938 20.0344 3.62188 20.4516 4.03906C20.8734 4.46094 21.1313 4.85938 21.3469 5.41719C21.5109 5.83906 21.7078 6.47656 21.7594 7.64375C21.8156 8.90937 21.8297 9.28906 21.8297 12.4906C21.8297 15.6969 21.8156 16.0766 21.7594 17.3375C21.7078 18.5094 21.5109 19.1422 21.3469 19.5641C21.1313 20.1219 20.8687 20.525 20.4516 20.9422C20.0297 21.3641 19.6313 21.6219 19.0734 21.8375C18.6516 22.0016 18.0141 22.1984 16.8469 22.25C15.5813 22.3062 15.2016 22.3203 12 22.3203C8.79375 22.3203 8.41406 22.3062 7.15313 22.25C5.98125 22.1984 5.34844 22.0016 4.92656 21.8375C4.36875 21.6219 3.96563 21.3594 3.54844 20.9422C3.12656 20.5203 2.86875 20.1219 2.65313 19.5641C2.48906 19.1422 2.29219 18.5047 2.24063 17.3375C2.18438 16.0719 2.17031 15.6922 2.17031 12.4906C2.17031 9.28438 2.18438 8.90469 2.24063 7.64375C2.29219 6.47187 2.48906 5.83906 2.65313 5.41719C2.86875 4.85938 3.13125 4.45625 3.54844 4.03906C3.97031 3.61719 4.36875 3.35938 4.92656 3.14375C5.34844 2.97969 5.98594 2.78281 7.15313 2.73125C8.41406 2.675 8.79375 2.66094 12 2.66094ZM12 0.5C8.74219 0.5 8.33438 0.514062 7.05469 0.570312C5.77969 0.626563 4.90313 0.832812 4.14375 1.12812C3.35156 1.4375 2.68125 1.84531 2.01563 2.51562C1.34531 3.18125 0.9375 3.85156 0.628125 4.63906C0.332812 5.40313 0.126563 6.275 0.0703125 7.55C0.0140625 8.83437 0 9.24219 0 12.5C0 15.7578 0.0140625 16.1656 0.0703125 17.4453C0.126563 18.7203 0.332812 19.5969 0.628125 20.3563C0.9375 21.1484 1.34531 21.8188 2.01563 22.4844C2.68125 23.15 3.35156 23.5625 4.13906 23.8672C4.90313 24.1625 5.775 24.3687 7.05 24.425C8.32969 24.4812 8.7375 24.4953 11.9953 24.4953C15.2531 24.4953 15.6609 24.4812 16.9406 24.425C18.2156 24.3687 19.0922 24.1625 19.8516 23.8672C20.6391 23.5625 21.3094 23.15 21.975 22.4844C22.6406 21.8188 23.0531 21.1484 23.3578 20.3609C23.6531 19.5969 23.8594 18.725 23.9156 17.45C23.9719 16.1703 23.9859 15.7625 23.9859 12.5047C23.9859 9.24688 23.9719 8.83906 23.9156 7.55938C23.8594 6.28438 23.6531 5.40781 23.3578 4.64844C23.0625 3.85156 22.6547 3.18125 21.9844 2.51562C21.3188 1.85 20.6484 1.4375 19.8609 1.13281C19.0969 0.8375 18.225 0.63125 16.95 0.575C15.6656 0.514063 15.2578 0.5 12 0.5Z" fill="#1E56A0"/>
<path d="M12 6.33594C8.59688 6.33594 5.83594 9.09688 5.83594 12.5C5.83594 15.9031 8.59688 18.6641 12 18.6641C15.4031 18.6641 18.1641 15.9031 18.1641 12.5C18.1641 9.09688 15.4031 6.33594 12 6.33594ZM12 16.4984C9.79219 16.4984 8.00156 14.7078 8.00156 12.5C8.00156 10.2922 9.79219 8.50156 12 8.50156C14.2078 8.50156 15.9984 10.2922 15.9984 12.5C15.9984 14.7078 14.2078 16.4984 12 16.4984Z" fill="#1E56A0"/>
<path d="M19.8469 6.09214C19.8469 6.88902 19.2 7.5312 18.4078 7.5312C17.6109 7.5312 16.9688 6.88433 16.9688 6.09214C16.9688 5.29526 17.6156 4.65308 18.4078 4.65308C19.2 4.65308 19.8469 5.29995 19.8469 6.09214Z" fill="#1E56A0"/>
</g>
<defs>
<clipPath id="clip0_962_88008">
<rect width="24" height="24" fill="white" transform="translate(0 0.5)"/>
</clipPath>
</defs>
</svg>
