<svg width="25" height="24" viewBox="0 0 25 24" fill="none" xmlns="http://www.w3.org/2000/svg">
<g id="LanguageOutlined">
<path id="Vector" d="M12.1419 2C6.62186 2 2.15186 6.48 2.15186 12C2.15186 17.52 6.62186 22 12.1419 22C17.6719 22 22.1519 17.52 22.1519 12C22.1519 6.48 17.6719 2 12.1419 2ZM19.0719 8H16.1219C15.8019 6.75 15.3419 5.55 14.7419 4.44C16.5819 5.07 18.1119 6.35 19.0719 8ZM12.1519 4.04C12.9819 5.24 13.6319 6.57 14.0619 8H10.2419C10.6719 6.57 11.3219 5.24 12.1519 4.04ZM4.41186 14C4.25186 13.36 4.15186 12.69 4.15186 12C4.15186 11.31 4.25186 10.64 4.41186 10H7.79186C7.71186 10.66 7.65186 11.32 7.65186 12C7.65186 12.68 7.71186 13.34 7.79186 14H4.41186ZM5.23186 16H8.18186C8.50186 17.25 8.96186 18.45 9.56186 19.56C7.72186 18.93 6.19186 17.66 5.23186 16ZM8.18186 8H5.23186C6.19186 6.34 7.72186 5.07 9.56186 4.44C8.96186 5.55 8.50186 6.75 8.18186 8ZM12.1519 19.96C11.3219 18.76 10.6719 17.43 10.2419 16H14.0619C13.6319 17.43 12.9819 18.76 12.1519 19.96ZM14.4919 14H9.81186C9.72186 13.34 9.65186 12.68 9.65186 12C9.65186 11.32 9.72186 10.65 9.81186 10H14.4919C14.5819 10.65 14.6519 11.32 14.6519 12C14.6519 12.68 14.5819 13.34 14.4919 14ZM14.7419 19.56C15.3419 18.45 15.8019 17.25 16.1219 16H19.0719C18.1119 17.65 16.5819 18.93 14.7419 19.56ZM16.5119 14C16.5919 13.34 16.6519 12.68 16.6519 12C16.6519 11.32 16.5919 10.66 16.5119 10H19.8919C20.0519 10.64 20.1519 11.31 20.1519 12C20.1519 12.69 20.0519 13.36 19.8919 14H16.5119Z" fill="#1E56A0"/>
</g>
</svg>
