<svg width="24" height="25" viewBox="0 0 24 25" fill="none" xmlns="http://www.w3.org/2000/svg">
<path d="M12.6681 21.5C12.5509 21.5 12.4336 21.5 12.3164 21.5C12.1284 21.3933 12.0771 21.226 12.1015 21.0247C12.1113 20.935 12.1259 20.8453 12.1382 20.758C12.1943 20.3773 12.2774 19.9966 12.2969 19.6135C12.3238 19.0776 12.2456 18.8836 11.7255 18.6993C11.4715 18.6096 11.198 18.5684 10.9318 18.5247C9.00989 18.1974 7.26871 17.4675 5.77661 16.2066C4.42372 15.0596 3.49574 13.6508 3.1392 11.9025C3.0757 11.597 3.0464 11.2842 3 10.9738C3 10.7289 3 10.484 3 10.2391C3.01221 10.176 3.02686 10.1154 3.03907 10.0524C3.12699 9.5868 3.17339 9.10668 3.31014 8.65566C3.88646 6.76429 5.10993 5.35789 6.74611 4.28854C8.36763 3.22646 10.165 2.67603 12.0942 2.53539C13.6791 2.41899 15.2298 2.58631 16.7365 3.08825C18.8367 3.78902 20.6145 4.95052 21.8282 6.82734C23.1274 8.8351 23.3667 10.9738 22.4436 13.2022C21.9747 14.3346 21.2177 15.2852 20.3361 16.1193C18.0504 18.2871 15.5277 20.1324 12.6681 21.5ZM14.8781 11.1678C14.8635 11.1751 14.8488 11.1823 14.8342 11.1896C14.6584 10.9544 14.4801 10.7192 14.3067 10.4816C13.8232 9.82686 13.3396 9.17215 12.8561 8.51745C12.6876 8.29194 12.4825 8.21192 12.27 8.27496C12.0576 8.34043 11.9037 8.52715 11.9037 8.76963C11.8988 10.0863 11.8988 11.4006 11.9037 12.7173C11.9037 12.9743 12.0576 13.1634 12.2798 13.224C12.6315 13.321 12.9294 13.0713 12.9318 12.6663C12.9343 11.9559 12.9318 11.2478 12.9343 10.5373C12.9343 10.4694 12.9392 10.4015 12.944 10.2949C13.0026 10.3627 13.0344 10.3991 13.0637 10.4379C13.684 11.2793 14.3067 12.1232 14.927 12.9646C15.1126 13.2143 15.3177 13.2944 15.5619 13.2168C15.7841 13.144 15.9111 12.9428 15.9111 12.6518C15.9111 11.8783 15.9111 11.1047 15.9111 10.3312C15.9111 9.80988 15.9136 9.28612 15.9087 8.76478C15.9062 8.47865 15.684 8.26041 15.4032 8.25799C15.1297 8.25557 14.9099 8.4544 14.8904 8.73326C14.883 8.83025 14.883 8.92724 14.883 9.02424C14.8781 9.73714 14.8781 10.4525 14.8781 11.1678ZM17.6719 12.2129C17.6719 11.8807 17.6719 11.5752 17.6719 11.2551C18.1725 11.2551 18.6584 11.2599 19.1444 11.2527C19.4179 11.2502 19.6377 11.0199 19.6426 10.7556C19.6475 10.4864 19.4179 10.2439 19.142 10.2367C18.8172 10.2294 18.4924 10.2342 18.1676 10.2342C18.0015 10.2342 17.8355 10.2342 17.667 10.2342C17.667 9.90203 17.667 9.5965 17.667 9.27399C18.1529 9.27399 18.6242 9.27399 19.098 9.27399C19.4106 9.27399 19.645 9.04849 19.6426 8.76236C19.6401 8.48592 19.4081 8.25799 19.1102 8.25557C18.4533 8.25072 17.7988 8.25072 17.1419 8.25557C16.8367 8.25799 16.634 8.46653 16.6315 8.77205C16.6291 10.0863 16.6291 11.403 16.6315 12.7173C16.6315 13.0204 16.8318 13.2337 17.1395 13.2386C17.7964 13.2483 18.4509 13.2459 19.1078 13.2386C19.3324 13.2362 19.5083 13.1295 19.5962 12.9161C19.7403 12.5718 19.4912 12.2129 19.1005 12.208C18.6291 12.208 18.1554 12.2129 17.6719 12.2129ZM7.62769 12.2129C7.62769 12.111 7.62769 12.0335 7.62769 11.9583C7.62769 10.9205 7.63013 9.88263 7.62769 8.8448C7.62769 8.49562 7.42011 8.26284 7.1173 8.25799C6.80472 8.25314 6.58737 8.48835 6.58737 8.8448C6.58493 10.1154 6.58493 11.386 6.58737 12.6566C6.58737 13.0325 6.80228 13.2459 7.17835 13.2483C7.79619 13.2507 8.41159 13.2507 9.02943 13.2459C9.11734 13.2459 9.21258 13.2289 9.29317 13.1974C9.52516 13.1052 9.64238 12.8627 9.58866 12.6081C9.54226 12.3875 9.3298 12.2153 9.07583 12.2129C8.60451 12.208 8.13075 12.2129 7.62769 12.2129ZM10.1039 10.7434C10.1039 11.3812 10.1015 12.0189 10.1039 12.6591C10.1039 13.0058 10.3139 13.2459 10.6143 13.2483C10.9147 13.2507 11.1345 13.0131 11.1345 12.6688C11.1369 11.386 11.1369 10.1033 11.132 8.82055C11.132 8.72598 11.1125 8.62656 11.0734 8.5417C10.9757 8.32589 10.7413 8.21919 10.5069 8.26769C10.2724 8.31619 10.1064 8.5223 10.1039 8.79145C10.1015 9.44131 10.1064 10.0912 10.1039 10.7434Z" fill="#1E56A0"/>
</svg>
