<svg width="24" height="24" viewBox="0 0 24 24" fill="none" xmlns="http://www.w3.org/2000/svg">
<path d="M12.6681 21C12.5509 21 12.4336 21 12.3164 21C12.1284 20.8933 12.0771 20.726 12.1015 20.5247C12.1113 20.435 12.1259 20.3453 12.1382 20.258C12.1943 19.8773 12.2774 19.4966 12.2969 19.1135C12.3238 18.5776 12.2456 18.3836 11.7255 18.1993C11.4715 18.1096 11.198 18.0684 10.9318 18.0247C9.00989 17.6974 7.26871 16.9675 5.77661 15.7066C4.42372 14.5596 3.49574 13.1508 3.1392 11.4025C3.0757 11.097 3.0464 10.7842 3 10.4738C3 10.2289 3 9.98399 3 9.73908C3.01221 9.67603 3.02686 9.61541 3.03907 9.55237C3.12699 9.0868 3.17339 8.60668 3.31014 8.15566C3.88646 6.26429 5.10993 4.85789 6.74611 3.78854C8.36763 2.72646 10.165 2.17603 12.0942 2.03539C13.6791 1.91899 15.2298 2.08631 16.7365 2.58825C18.8367 3.28902 20.6145 4.45052 21.8282 6.32734C23.1274 8.3351 23.3667 10.4738 22.4436 12.7022C21.9747 13.8346 21.2177 14.7852 20.3361 15.6193C18.0504 17.7871 15.5277 19.6324 12.6681 21ZM14.8781 10.6678C14.8635 10.6751 14.8488 10.6823 14.8342 10.6896C14.6584 10.4544 14.4801 10.2192 14.3067 9.98156C13.8232 9.32686 13.3396 8.67215 12.8561 8.01745C12.6876 7.79194 12.4825 7.71192 12.27 7.77496C12.0576 7.84043 11.9037 8.02715 11.9037 8.26963C11.8988 9.58631 11.8988 10.9006 11.9037 12.2173C11.9037 12.4743 12.0576 12.6634 12.2798 12.724C12.6315 12.821 12.9294 12.5713 12.9318 12.1663C12.9343 11.4559 12.9318 10.7478 12.9343 10.0373C12.9343 9.96944 12.9392 9.90154 12.944 9.79485C13.0026 9.86275 13.0344 9.89912 13.0637 9.93792C13.684 10.7793 14.3067 11.6232 14.927 12.4646C15.1126 12.7143 15.3177 12.7944 15.5619 12.7168C15.7841 12.644 15.9111 12.4428 15.9111 12.1518C15.9111 11.3783 15.9111 10.6047 15.9111 9.83122C15.9111 9.30988 15.9136 8.78612 15.9087 8.26478C15.9062 7.97865 15.684 7.76041 15.4032 7.75799C15.1297 7.75557 14.9099 7.9544 14.8904 8.23326C14.883 8.33025 14.883 8.42724 14.883 8.52424C14.8781 9.23714 14.8781 9.95246 14.8781 10.6678ZM17.6719 11.7129C17.6719 11.3807 17.6719 11.0752 17.6719 10.7551C18.1725 10.7551 18.6584 10.7599 19.1444 10.7527C19.4179 10.7502 19.6377 10.5199 19.6426 10.2556C19.6475 9.98641 19.4179 9.74393 19.142 9.73665C18.8172 9.72938 18.4924 9.73423 18.1676 9.73423C18.0015 9.73423 17.8355 9.73423 17.667 9.73423C17.667 9.40203 17.667 9.0965 17.667 8.77399C18.1529 8.77399 18.6242 8.77399 19.098 8.77399C19.4106 8.77399 19.645 8.54849 19.6426 8.26236C19.6401 7.98592 19.4081 7.75799 19.1102 7.75557C18.4533 7.75072 17.7988 7.75072 17.1419 7.75557C16.8367 7.75799 16.634 7.96653 16.6315 8.27205C16.6291 9.58631 16.6291 10.903 16.6315 12.2173C16.6315 12.5204 16.8318 12.7337 17.1395 12.7386C17.7964 12.7483 18.4509 12.7459 19.1078 12.7386C19.3324 12.7362 19.5083 12.6295 19.5962 12.4161C19.7403 12.0718 19.4912 11.7129 19.1005 11.708C18.6291 11.708 18.1554 11.7129 17.6719 11.7129ZM7.62769 11.7129C7.62769 11.611 7.62769 11.5335 7.62769 11.4583C7.62769 10.4205 7.63013 9.38263 7.62769 8.3448C7.62769 7.99562 7.42011 7.76284 7.1173 7.75799C6.80472 7.75314 6.58737 7.98835 6.58737 8.3448C6.58493 9.61541 6.58493 10.886 6.58737 12.1566C6.58737 12.5325 6.80228 12.7459 7.17835 12.7483C7.79619 12.7507 8.41159 12.7507 9.02943 12.7459C9.11734 12.7459 9.21258 12.7289 9.29317 12.6974C9.52516 12.6052 9.64238 12.3627 9.58866 12.1081C9.54226 11.8875 9.3298 11.7153 9.07583 11.7129C8.60451 11.708 8.13075 11.7129 7.62769 11.7129ZM10.1039 10.2434C10.1039 10.8812 10.1015 11.5189 10.1039 12.1591C10.1039 12.5058 10.3139 12.7459 10.6143 12.7483C10.9147 12.7507 11.1345 12.5131 11.1345 12.1688C11.1369 10.886 11.1369 9.60329 11.132 8.32055C11.132 8.22598 11.1125 8.12656 11.0734 8.0417C10.9757 7.82589 10.7413 7.71919 10.5069 7.76769C10.2724 7.81619 10.1064 8.0223 10.1039 8.29145C10.1015 8.94131 10.1064 9.59116 10.1039 10.2434Z" fill="white"/>
</svg>
