<svg width="41" height="35" viewBox="0 0 41 35" fill="none" xmlns="http://www.w3.org/2000/svg">
<path id="&#226;&#128;&#156;" d="M9.75517 18.9228C10.8862 18.6382 11.9701 18.6856 13.0069 19.065C14.0437 19.3496 14.9391 19.8713 15.6931 20.6301C16.5414 21.3889 17.2012 22.29 17.6724 23.3333C18.2379 24.3767 18.5207 25.5149 18.5207 26.748C18.5207 29.1192 17.6724 31.1111 15.9759 32.7236C14.2793 34.2412 12.2057 35 9.75517 35C6.45632 35 4.00575 33.8144 2.40345 31.4431C0.801149 28.977 0 25.8469 0 22.0528C0 16.9309 1.17816 12.4729 3.53448 8.67886C5.98506 4.78997 9.75517 1.89702 14.8448 0L16.8241 2.70325C13.1483 4.41057 10.4149 6.54472 8.62414 9.10569C6.83333 11.6667 5.93793 14.5122 5.93793 17.6423C5.93793 18.6856 6.12644 19.3022 6.50345 19.4919C6.97471 19.6816 7.4931 19.6816 8.05862 19.4919L9.75517 18.9228ZM32.3759 18.9228C34.5437 18.4485 36.523 19.0176 38.3138 20.6301C40.1046 22.2425 41 24.2818 41 26.748C41 29.1192 40.1517 31.1111 38.4552 32.7236C36.8529 34.2412 34.8264 35 32.3759 35C29.077 35 26.5793 33.8144 24.8828 31.4431C23.2805 28.977 22.4793 25.8469 22.4793 22.0528C22.4793 16.9309 23.7046 12.4729 26.1552 8.67886C28.6057 4.78997 32.3759 1.89702 37.4655 0L39.4448 2.70325C35.769 4.41057 32.9885 6.54472 31.1034 9.10569C29.3126 11.6667 28.4172 14.5122 28.4172 17.6423C28.4172 18.6856 28.6057 19.3022 28.9828 19.4919C29.454 19.6816 30.0195 19.6816 30.6793 19.4919L32.3759 18.9228Z" fill="#13325D"/>
</svg>
