<svg width="24" height="25" viewBox="0 0 24 25" fill="none" xmlns="http://www.w3.org/2000/svg">
<path d="M23.7609 7.70005C23.7609 7.70005 23.5266 6.04536 22.8047 5.3188C21.8906 4.36255 20.8688 4.35786 20.4 4.30161C17.0438 4.05786 12.0047 4.05786 12.0047 4.05786H11.9953C11.9953 4.05786 6.95625 4.05786 3.6 4.30161C3.13125 4.35786 2.10938 4.36255 1.19531 5.3188C0.473438 6.04536 0.24375 7.70005 0.24375 7.70005C0.24375 7.70005 0 9.64536 0 11.586V13.4047C0 15.3454 0.239062 17.2907 0.239062 17.2907C0.239062 17.2907 0.473437 18.9454 1.19062 19.6719C2.10469 20.6282 3.30469 20.5954 3.83906 20.6985C5.76094 20.8813 12 20.9375 12 20.9375C12 20.9375 17.0438 20.9282 20.4 20.6891C20.8688 20.6329 21.8906 20.6282 22.8047 19.6719C23.5266 18.9454 23.7609 17.2907 23.7609 17.2907C23.7609 17.2907 24 15.35 24 13.4047V11.586C24 9.64536 23.7609 7.70005 23.7609 7.70005ZM9.52031 15.6125V8.86724L16.0031 12.2516L9.52031 15.6125Z" fill="#1E56A0"/>
</svg>
